<svg width="60" height="60" viewBox="0 0 60 60" fill="none" xmlns="http://www.w3.org/2000/svg">
    <g clip-path="url(#svg-product-android-xOBnk5S)">
        <path d="M43.8217 34.2555C43.3275 34.2555 42.8444 34.1091 42.4334 33.8346C42.0225 33.5601 41.7021 33.17 41.5129 32.7134C41.3237 32.2569 41.2742 31.7545 41.3705 31.2698C41.4668 30.7851 41.7047 30.3398 42.0541 29.9903C42.4034 29.6408 42.8486 29.4028 43.3333 29.3063C43.8179 29.2098 44.3204 29.2592 44.777 29.4482C45.2336 29.6372 45.6239 29.9574 45.8985 30.3682C46.1731 30.7791 46.3198 31.2622 46.3198 31.7563C46.3191 32.4188 46.0557 33.0538 45.5874 33.5223C45.1191 33.9908 44.4841 34.2545 43.8217 34.2555ZM16.2061 34.2555C15.712 34.2555 15.2288 34.1091 14.8179 33.8346C14.4069 33.5601 14.0866 33.17 13.8974 32.7134C13.7082 32.2569 13.6586 31.7545 13.7549 31.2698C13.8513 30.7851 14.0892 30.3398 14.4385 29.9903C14.7879 29.6408 15.2331 29.4028 15.7177 29.3063C16.2024 29.2098 16.7048 29.2592 17.1614 29.4482C17.618 29.6372 18.0083 29.9574 18.283 30.3682C18.5576 30.7791 18.7042 31.2622 18.7043 31.7563C18.7037 32.4188 18.4403 33.0539 17.972 33.5225C17.5037 33.991 16.8686 34.2546 16.2061 34.2555ZM44.7176 19.2057L49.7107 10.5576C49.779 10.4395 49.8233 10.3091 49.8412 10.1738C49.8591 10.0386 49.8502 9.90109 49.815 9.76927C49.7797 9.63746 49.7189 9.51387 49.6359 9.40558C49.5529 9.29728 49.4493 9.20639 49.3312 9.1381C49.2131 9.06981 49.0827 9.02546 48.9474 9.00757C48.8121 8.98968 48.6747 8.99861 48.5429 9.03385C48.411 9.06909 48.2875 9.12995 48.1792 9.21295C48.0709 9.29594 47.98 9.39946 47.9117 9.51759L42.8555 18.2749C38.9892 16.5102 34.6468 15.5276 30.0134 15.5276C25.3801 15.5276 21.0382 16.5116 17.1718 18.2749L12.1161 9.51759C12.0479 9.39943 11.9571 9.29586 11.8489 9.2128C11.7407 9.12974 11.6172 9.0688 11.4854 9.03348C11.3536 8.99815 11.2162 8.98913 11.0809 9.00692C10.9457 9.02471 10.8152 9.06897 10.6971 9.13716C10.5789 9.20536 10.4753 9.29616 10.3923 9.40438C10.3092 9.51261 10.2483 9.63613 10.213 9.7679C10.1776 9.89967 10.1686 10.0371 10.1864 10.1724C10.2042 10.3076 10.2484 10.4381 10.3166 10.5562L15.3102 19.2057C6.73605 23.8691 0.871508 32.5492 0.0136719 42.8046H60.0141C59.1554 32.5492 53.2913 23.8691 44.7176 19.2057Z" fill="#3DDC84"></path>
    </g>
    <defs>
        <clipPath id="svg-product-android-xOBnk5S">
            <rect width="60" height="33.8049" fill="white" transform="translate(0 9)"></rect>
        </clipPath>
    </defs>
</svg>