<svg width="60" height="60" viewBox="0 0 60 60" fill="none" xmlns="http://www.w3.org/2000/svg">
    <path d="M37.9098 18.4725H39.728L44.9098 13.2907L45.1643 11.0907C42.1959 8.47059 38.6085 6.65051 34.741 5.80237C30.8735 4.95422 26.8537 5.10601 23.0612 6.24339C19.2687 7.38078 15.8287 9.46621 13.0663 12.3027C10.3039 15.1392 8.31013 18.6331 7.27344 22.4543C7.85072 22.2177 8.49019 22.1793 9.09162 22.3452L19.4553 20.6361C19.4553 20.6361 19.9825 19.7634 20.2553 19.8179C22.4759 17.3792 25.5447 15.8814 28.8335 15.6313C32.1223 15.3811 35.3823 16.3976 37.9462 18.4725H37.9098Z" fill="#EA4335"></path>
    <path d="M52.2902 22.4548C51.0992 18.0687 48.6537 14.1256 45.2539 11.1094L37.9811 18.3821C39.4969 19.6206 40.7115 21.1871 41.5336 22.9634C42.3556 24.7398 42.7636 26.6796 42.7266 28.6366V29.9276C43.5766 29.9276 44.4183 30.095 45.2036 30.4203C45.9889 30.7456 46.7025 31.2223 47.3035 31.8234C47.9046 32.4244 48.3813 33.138 48.7066 33.9233C49.0319 34.7086 49.1993 35.5503 49.1993 36.4003C49.1993 37.2503 49.0319 38.092 48.7066 38.8773C48.3813 39.6626 47.9046 40.3761 47.3035 40.9772C46.7025 41.5782 45.9889 42.055 45.2036 42.3803C44.4183 42.7056 43.5766 42.873 42.7266 42.873H29.7811L28.4902 44.1821V51.9457L29.7811 53.2366H42.7266C46.3416 53.2648 49.8696 52.1286 52.7888 49.9962C55.708 47.8638 57.8633 44.8485 58.9359 41.3962C60.0085 37.9439 59.9414 34.238 58.7446 30.8268C57.5477 27.4156 55.2847 24.4802 52.2902 22.4548Z" fill="#4285F4"></path>
    <path d="M16.8179 53.1642H29.7634V42.8006H16.8179C15.8956 42.8004 14.9841 42.6019 14.1452 42.2188L12.327 42.7824L7.10884 47.9642L6.6543 49.7824C9.58054 51.992 13.1512 53.1801 16.8179 53.1642Z" fill="#34A853"></path>
    <path d="M16.8178 19.545C13.3102 19.566 9.89676 20.6819 7.05418 22.737C4.2116 24.7921 2.08186 27.6837 0.962434 31.008C-0.156993 34.3322 -0.21021 37.9231 0.810217 41.279C1.83064 44.635 3.87375 47.5884 6.65419 49.7268L14.1633 42.2178C13.209 41.7866 12.3736 41.1304 11.7287 40.3055C11.0838 39.4805 10.6487 38.5114 10.4607 37.4813C10.2727 36.4512 10.3374 35.3908 10.6493 34.3912C10.9612 33.3916 11.5109 32.4826 12.2514 31.7422C12.9918 31.0018 13.9008 30.452 14.9004 30.1402C15.9 29.8283 16.9603 29.7636 17.9904 29.9516C19.0205 30.1396 19.9896 30.5747 20.8146 31.2196C21.6396 31.8645 22.2958 32.6999 22.7269 33.6541L30.236 26.145C28.6599 24.0846 26.6286 22.4167 24.3008 21.2717C21.973 20.1267 19.4119 19.5358 16.8178 19.545Z" fill="#FBBC05"></path>
</svg>