<svg class="logo__3dyGg" width="117" height="30" viewBox="0 0 117 30" fill="none" xmlns="http://www.w3.org/2000/svg"><path d="M107.459 6.20996C102.349 6.20996 98.2051 10.3534 98.2051 15.4643C98.2051 20.5753 102.349 24.7187 107.459 24.7187C112.57 24.7187 116.714 20.5753 116.714 15.4643C116.715 10.3534 112.572 6.20996 107.459 6.20996Z" fill="#4285F4"></path><path d="M92.7246 29.2024L99.0999 1.74023" stroke="white" stroke-miterlimit="10" stroke-linecap="round" stroke-linejoin="round"></path><path d="M91.9561 6.64014H83V24.2601H91.9561V6.64014Z" fill="#4285F4"></path><path fill-rule="evenodd" clip-rule="evenodd" d="M66.2174 18.4429L71.5764 16.2179C71.2804 15.4689 70.3954 14.9459 69.3514 14.9459C68.0114 14.9459 66.1504 16.1269 66.2174 18.4429ZM72.5064 20.5999L74.5504 21.9619C73.8924 22.9389 72.3024 24.6189 69.5554 24.6189C66.1504 24.6189 63.6904 21.9849 63.6904 18.6249C63.6904 15.0599 66.1724 12.6299 69.2604 12.6299C72.3704 12.6299 73.8924 15.1049 74.3914 16.4449L74.6634 17.1259L66.6484 20.4409C67.2624 21.6439 68.2154 22.2569 69.5554 22.2569C70.8944 22.2569 71.8254 21.5989 72.5064 20.5999Z" fill="white"></path><path fill-rule="evenodd" clip-rule="evenodd" d="M59.519 24.255H62.153V6.63599H59.519V24.255Z" fill="white"></path><path fill-rule="evenodd" clip-rule="evenodd" d="M55.2213 18.6469C55.2213 16.5359 53.8133 14.9909 52.0203 14.9909C50.2043 14.9909 48.6823 16.5359 48.6823 18.6469C48.6823 20.7359 50.2043 22.2569 52.0203 22.2569C53.8133 22.2569 55.2213 20.7359 55.2213 18.6469ZM57.5373 12.9929V23.7559C57.5373 28.1829 54.9263 29.9999 51.8383 29.9999C48.9323 29.9999 47.1843 28.0469 46.5253 26.4579L48.8183 25.5039C49.2273 26.4799 50.2263 27.6379 51.8383 27.6379C53.8133 27.6379 55.0403 26.4129 55.0403 24.1189V23.2559H54.9483C54.3583 23.9829 53.2233 24.6179 51.7933 24.6179C48.7963 24.6179 46.0493 22.0079 46.0493 18.6469C46.0493 15.2639 48.7963 12.6299 51.7933 12.6299C53.2233 12.6299 54.3583 13.2659 54.9483 13.9699H55.0403V12.9929H57.5373Z" fill="white"></path><path fill-rule="evenodd" clip-rule="evenodd" d="M42.0386 18.6244C42.0386 16.4674 40.5006 14.9914 38.7166 14.9914C36.9336 14.9914 35.3946 16.4674 35.3946 18.6244C35.3946 20.7584 36.9336 22.2574 38.7166 22.2574C40.5006 22.2574 42.0386 20.7584 42.0386 18.6244ZM44.6246 18.6244C44.6246 22.0754 41.9716 24.6184 38.7166 24.6184C35.4616 24.6184 32.8096 22.0754 32.8096 18.6244C32.8096 15.1504 35.4616 12.6304 38.7166 12.6304C41.9716 12.6304 44.6246 15.1504 44.6246 18.6244Z" fill="white"></path><path fill-rule="evenodd" clip-rule="evenodd" d="M28.7949 18.6244C28.7949 16.4674 27.2569 14.9914 25.4729 14.9914C23.6899 14.9914 22.1519 16.4674 22.1519 18.6244C22.1519 20.7584 23.6899 22.2574 25.4729 22.2574C27.2569 22.2574 28.7949 20.7584 28.7949 18.6244ZM31.3809 18.6244C31.3809 22.0754 28.7279 24.6184 25.4729 24.6184C22.2189 24.6184 19.5659 22.0754 19.5659 18.6244C19.5659 15.1504 22.2189 12.6304 25.4729 12.6304C28.7279 12.6304 31.3809 15.1504 31.3809 18.6244Z" fill="white"></path><path fill-rule="evenodd" clip-rule="evenodd" d="M9.445 24.6185C4.314 24.6185 0 20.4415 0 15.3095C0 10.1785 4.314 6.00049 9.445 6.00049C12.284 6.00049 14.304 7.11249 15.826 8.56549L14.032 10.3595C12.942 9.33749 11.466 8.54349 9.445 8.54349C5.699 8.54349 2.77 11.5635 2.77 15.3095C2.77 19.0555 5.699 22.0755 9.445 22.0755C11.875 22.0755 13.259 21.0995 14.145 20.2135C14.871 19.4875 15.349 18.4425 15.53 17.0125H9.445V14.4695H18.005C18.096 14.9235 18.142 15.4685 18.142 16.0585C18.142 17.9665 17.619 20.3275 15.939 22.0075C14.304 23.7105 12.215 24.6185 9.445 24.6185Z" fill="white"></path></svg>